<mxfile host="app.diagrams.net" modified="2023-09-05T08:04:03.655Z" agent="Mozilla/5.0 (Windows NT 10.0; Win64; x64) AppleWebKit/537.36 (KHTML, like Gecko) Chrome/116.0.0.0 Safari/537.36" etag="9CnZUmiieIHq-DJuo6pd" version="21.7.2" type="github">
  <diagram name="第 1 页" id="pu-yci3ryIJU3I6pywFl">
    <mxGraphModel dx="875" dy="532" grid="1" gridSize="10" guides="1" tooltips="1" connect="1" arrows="1" fold="1" page="1" pageScale="1" pageWidth="827" pageHeight="1169" math="0" shadow="0">
      <root>
        <mxCell id="0" />
        <mxCell id="1" parent="0" />
        <mxCell id="Os3PzlcSdva7aXKXOIUQ-2" value="Table" style="shape=table;startSize=30;container=1;collapsible=0;childLayout=tableLayout;strokeColor=default;fontSize=16;" vertex="1" parent="1">
          <mxGeometry x="30" y="310" width="690" height="280.0000000000007" as="geometry" />
        </mxCell>
        <mxCell id="Os3PzlcSdva7aXKXOIUQ-3" value="" style="shape=tableRow;horizontal=0;startSize=0;swimlaneHead=0;swimlaneBody=0;strokeColor=inherit;top=0;left=0;bottom=0;right=0;collapsible=0;dropTarget=0;fillColor=none;points=[[0,0.5],[1,0.5]];portConstraint=eastwest;fontSize=16;" vertex="1" parent="Os3PzlcSdva7aXKXOIUQ-2">
          <mxGeometry y="30" width="690" height="40" as="geometry" />
        </mxCell>
        <mxCell id="Os3PzlcSdva7aXKXOIUQ-4" value="Pages" style="shape=partialRectangle;html=1;whiteSpace=wrap;connectable=0;strokeColor=inherit;overflow=hidden;fillColor=none;top=0;left=0;bottom=0;right=0;pointerEvents=1;fontSize=16;" vertex="1" parent="Os3PzlcSdva7aXKXOIUQ-3">
          <mxGeometry width="160" height="40" as="geometry">
            <mxRectangle width="160" height="40" as="alternateBounds" />
          </mxGeometry>
        </mxCell>
        <mxCell id="Os3PzlcSdva7aXKXOIUQ-5" value="Pages Type" style="shape=partialRectangle;html=1;whiteSpace=wrap;connectable=0;strokeColor=inherit;overflow=hidden;fillColor=none;top=0;left=0;bottom=0;right=0;pointerEvents=1;fontSize=16;" vertex="1" parent="Os3PzlcSdva7aXKXOIUQ-3">
          <mxGeometry x="160" width="160" height="40" as="geometry">
            <mxRectangle width="160" height="40" as="alternateBounds" />
          </mxGeometry>
        </mxCell>
        <mxCell id="Os3PzlcSdva7aXKXOIUQ-6" value="是否需要向后端请求" style="shape=partialRectangle;html=1;whiteSpace=wrap;connectable=0;strokeColor=inherit;overflow=hidden;fillColor=none;top=0;left=0;bottom=0;right=0;pointerEvents=1;fontSize=16;" vertex="1" parent="Os3PzlcSdva7aXKXOIUQ-3">
          <mxGeometry x="320" width="160" height="40" as="geometry">
            <mxRectangle width="160" height="40" as="alternateBounds" />
          </mxGeometry>
        </mxCell>
        <mxCell id="Os3PzlcSdva7aXKXOIUQ-18" value="备注" style="shape=partialRectangle;html=1;whiteSpace=wrap;connectable=0;strokeColor=inherit;overflow=hidden;fillColor=none;top=0;left=0;bottom=0;right=0;pointerEvents=1;fontSize=16;" vertex="1" parent="Os3PzlcSdva7aXKXOIUQ-3">
          <mxGeometry x="480" width="210" height="40" as="geometry">
            <mxRectangle width="210" height="40" as="alternateBounds" />
          </mxGeometry>
        </mxCell>
        <mxCell id="Os3PzlcSdva7aXKXOIUQ-7" value="" style="shape=tableRow;horizontal=0;startSize=0;swimlaneHead=0;swimlaneBody=0;strokeColor=inherit;top=0;left=0;bottom=0;right=0;collapsible=0;dropTarget=0;fillColor=none;points=[[0,0.5],[1,0.5]];portConstraint=eastwest;fontSize=16;" vertex="1" parent="Os3PzlcSdva7aXKXOIUQ-2">
          <mxGeometry y="70" width="690" height="40" as="geometry" />
        </mxCell>
        <mxCell id="Os3PzlcSdva7aXKXOIUQ-8" value="主页面" style="shape=partialRectangle;html=1;whiteSpace=wrap;connectable=0;strokeColor=inherit;overflow=hidden;fillColor=none;top=0;left=0;bottom=0;right=0;pointerEvents=1;fontSize=16;" vertex="1" parent="Os3PzlcSdva7aXKXOIUQ-7">
          <mxGeometry width="160" height="40" as="geometry">
            <mxRectangle width="160" height="40" as="alternateBounds" />
          </mxGeometry>
        </mxCell>
        <mxCell id="Os3PzlcSdva7aXKXOIUQ-9" value="静态页面" style="shape=partialRectangle;html=1;whiteSpace=wrap;connectable=0;strokeColor=inherit;overflow=hidden;fillColor=none;top=0;left=0;bottom=0;right=0;pointerEvents=1;fontSize=16;" vertex="1" parent="Os3PzlcSdva7aXKXOIUQ-7">
          <mxGeometry x="160" width="160" height="40" as="geometry">
            <mxRectangle width="160" height="40" as="alternateBounds" />
          </mxGeometry>
        </mxCell>
        <mxCell id="Os3PzlcSdva7aXKXOIUQ-10" value="否" style="shape=partialRectangle;html=1;whiteSpace=wrap;connectable=0;strokeColor=inherit;overflow=hidden;fillColor=none;top=0;left=0;bottom=0;right=0;pointerEvents=1;fontSize=16;" vertex="1" parent="Os3PzlcSdva7aXKXOIUQ-7">
          <mxGeometry x="320" width="160" height="40" as="geometry">
            <mxRectangle width="160" height="40" as="alternateBounds" />
          </mxGeometry>
        </mxCell>
        <mxCell id="Os3PzlcSdva7aXKXOIUQ-19" style="shape=partialRectangle;html=1;whiteSpace=wrap;connectable=0;strokeColor=inherit;overflow=hidden;fillColor=none;top=0;left=0;bottom=0;right=0;pointerEvents=1;fontSize=16;" vertex="1" parent="Os3PzlcSdva7aXKXOIUQ-7">
          <mxGeometry x="480" width="210" height="40" as="geometry">
            <mxRectangle width="210" height="40" as="alternateBounds" />
          </mxGeometry>
        </mxCell>
        <mxCell id="Os3PzlcSdva7aXKXOIUQ-11" value="" style="shape=tableRow;horizontal=0;startSize=0;swimlaneHead=0;swimlaneBody=0;strokeColor=inherit;top=0;left=0;bottom=0;right=0;collapsible=0;dropTarget=0;fillColor=none;points=[[0,0.5],[1,0.5]];portConstraint=eastwest;fontSize=16;" vertex="1" parent="Os3PzlcSdva7aXKXOIUQ-2">
          <mxGeometry y="110" width="690" height="40" as="geometry" />
        </mxCell>
        <mxCell id="Os3PzlcSdva7aXKXOIUQ-12" value="分子库页面" style="shape=partialRectangle;html=1;whiteSpace=wrap;connectable=0;strokeColor=inherit;overflow=hidden;fillColor=none;top=0;left=0;bottom=0;right=0;pointerEvents=1;fontSize=16;" vertex="1" parent="Os3PzlcSdva7aXKXOIUQ-11">
          <mxGeometry width="160" height="40" as="geometry">
            <mxRectangle width="160" height="40" as="alternateBounds" />
          </mxGeometry>
        </mxCell>
        <mxCell id="Os3PzlcSdva7aXKXOIUQ-13" value="SPA" style="shape=partialRectangle;html=1;whiteSpace=wrap;connectable=0;strokeColor=inherit;overflow=hidden;fillColor=none;top=0;left=0;bottom=0;right=0;pointerEvents=1;fontSize=16;" vertex="1" parent="Os3PzlcSdva7aXKXOIUQ-11">
          <mxGeometry x="160" width="160" height="40" as="geometry">
            <mxRectangle width="160" height="40" as="alternateBounds" />
          </mxGeometry>
        </mxCell>
        <mxCell id="Os3PzlcSdva7aXKXOIUQ-14" value="是" style="shape=partialRectangle;html=1;whiteSpace=wrap;connectable=0;strokeColor=inherit;overflow=hidden;fillColor=none;top=0;left=0;bottom=0;right=0;pointerEvents=1;fontSize=16;" vertex="1" parent="Os3PzlcSdva7aXKXOIUQ-11">
          <mxGeometry x="320" width="160" height="40" as="geometry">
            <mxRectangle width="160" height="40" as="alternateBounds" />
          </mxGeometry>
        </mxCell>
        <mxCell id="Os3PzlcSdva7aXKXOIUQ-20" value="重定向到&lt;a href=&quot;https://www.rcsb.org/structure/7T8X&quot;&gt;https://www.rcsb.org/structure/7T8X&lt;/a&gt;" style="shape=partialRectangle;html=1;whiteSpace=wrap;connectable=0;strokeColor=inherit;overflow=hidden;fillColor=none;top=0;left=0;bottom=0;right=0;pointerEvents=1;fontSize=16;" vertex="1" parent="Os3PzlcSdva7aXKXOIUQ-11">
          <mxGeometry x="480" width="210" height="40" as="geometry">
            <mxRectangle width="210" height="40" as="alternateBounds" />
          </mxGeometry>
        </mxCell>
        <mxCell id="Os3PzlcSdva7aXKXOIUQ-21" style="shape=tableRow;horizontal=0;startSize=0;swimlaneHead=0;swimlaneBody=0;strokeColor=inherit;top=0;left=0;bottom=0;right=0;collapsible=0;dropTarget=0;fillColor=none;points=[[0,0.5],[1,0.5]];portConstraint=eastwest;fontSize=16;" vertex="1" parent="Os3PzlcSdva7aXKXOIUQ-2">
          <mxGeometry y="150" width="690" height="50" as="geometry" />
        </mxCell>
        <mxCell id="Os3PzlcSdva7aXKXOIUQ-22" value="产品页面" style="shape=partialRectangle;html=1;whiteSpace=wrap;connectable=0;strokeColor=inherit;overflow=hidden;fillColor=none;top=0;left=0;bottom=0;right=0;pointerEvents=1;fontSize=16;" vertex="1" parent="Os3PzlcSdva7aXKXOIUQ-21">
          <mxGeometry width="160" height="50" as="geometry">
            <mxRectangle width="160" height="50" as="alternateBounds" />
          </mxGeometry>
        </mxCell>
        <mxCell id="Os3PzlcSdva7aXKXOIUQ-23" value="静态页面？" style="shape=partialRectangle;html=1;whiteSpace=wrap;connectable=0;strokeColor=inherit;overflow=hidden;fillColor=none;top=0;left=0;bottom=0;right=0;pointerEvents=1;fontSize=16;" vertex="1" parent="Os3PzlcSdva7aXKXOIUQ-21">
          <mxGeometry x="160" width="160" height="50" as="geometry">
            <mxRectangle width="160" height="50" as="alternateBounds" />
          </mxGeometry>
        </mxCell>
        <mxCell id="Os3PzlcSdva7aXKXOIUQ-24" value="否？" style="shape=partialRectangle;html=1;whiteSpace=wrap;connectable=0;strokeColor=inherit;overflow=hidden;fillColor=none;top=0;left=0;bottom=0;right=0;pointerEvents=1;fontSize=16;" vertex="1" parent="Os3PzlcSdva7aXKXOIUQ-21">
          <mxGeometry x="320" width="160" height="50" as="geometry">
            <mxRectangle width="160" height="50" as="alternateBounds" />
          </mxGeometry>
        </mxCell>
        <mxCell id="Os3PzlcSdva7aXKXOIUQ-25" value="产品介绍" style="shape=partialRectangle;html=1;whiteSpace=wrap;connectable=0;strokeColor=inherit;overflow=hidden;fillColor=none;top=0;left=0;bottom=0;right=0;pointerEvents=1;fontSize=16;" vertex="1" parent="Os3PzlcSdva7aXKXOIUQ-21">
          <mxGeometry x="480" width="210" height="50" as="geometry">
            <mxRectangle width="210" height="50" as="alternateBounds" />
          </mxGeometry>
        </mxCell>
        <mxCell id="Os3PzlcSdva7aXKXOIUQ-26" style="shape=tableRow;horizontal=0;startSize=0;swimlaneHead=0;swimlaneBody=0;strokeColor=inherit;top=0;left=0;bottom=0;right=0;collapsible=0;dropTarget=0;fillColor=none;points=[[0,0.5],[1,0.5]];portConstraint=eastwest;fontSize=16;" vertex="1" parent="Os3PzlcSdva7aXKXOIUQ-2">
          <mxGeometry y="200" width="690" height="40" as="geometry" />
        </mxCell>
        <mxCell id="Os3PzlcSdva7aXKXOIUQ-27" value="登录页面" style="shape=partialRectangle;html=1;whiteSpace=wrap;connectable=0;strokeColor=inherit;overflow=hidden;fillColor=none;top=0;left=0;bottom=0;right=0;pointerEvents=1;fontSize=16;" vertex="1" parent="Os3PzlcSdva7aXKXOIUQ-26">
          <mxGeometry width="160" height="40" as="geometry">
            <mxRectangle width="160" height="40" as="alternateBounds" />
          </mxGeometry>
        </mxCell>
        <mxCell id="Os3PzlcSdva7aXKXOIUQ-28" value="SPA" style="shape=partialRectangle;html=1;whiteSpace=wrap;connectable=0;strokeColor=inherit;overflow=hidden;fillColor=none;top=0;left=0;bottom=0;right=0;pointerEvents=1;fontSize=16;" vertex="1" parent="Os3PzlcSdva7aXKXOIUQ-26">
          <mxGeometry x="160" width="160" height="40" as="geometry">
            <mxRectangle width="160" height="40" as="alternateBounds" />
          </mxGeometry>
        </mxCell>
        <mxCell id="Os3PzlcSdva7aXKXOIUQ-29" value="是" style="shape=partialRectangle;html=1;whiteSpace=wrap;connectable=0;strokeColor=inherit;overflow=hidden;fillColor=none;top=0;left=0;bottom=0;right=0;pointerEvents=1;fontSize=16;" vertex="1" parent="Os3PzlcSdva7aXKXOIUQ-26">
          <mxGeometry x="320" width="160" height="40" as="geometry">
            <mxRectangle width="160" height="40" as="alternateBounds" />
          </mxGeometry>
        </mxCell>
        <mxCell id="Os3PzlcSdva7aXKXOIUQ-30" value="登录" style="shape=partialRectangle;html=1;whiteSpace=wrap;connectable=0;strokeColor=inherit;overflow=hidden;fillColor=none;top=0;left=0;bottom=0;right=0;pointerEvents=1;fontSize=16;" vertex="1" parent="Os3PzlcSdva7aXKXOIUQ-26">
          <mxGeometry x="480" width="210" height="40" as="geometry">
            <mxRectangle width="210" height="40" as="alternateBounds" />
          </mxGeometry>
        </mxCell>
        <mxCell id="Os3PzlcSdva7aXKXOIUQ-31" style="shape=tableRow;horizontal=0;startSize=0;swimlaneHead=0;swimlaneBody=0;strokeColor=inherit;top=0;left=0;bottom=0;right=0;collapsible=0;dropTarget=0;fillColor=none;points=[[0,0.5],[1,0.5]];portConstraint=eastwest;fontSize=16;" vertex="1" parent="Os3PzlcSdva7aXKXOIUQ-2">
          <mxGeometry y="240" width="690" height="40" as="geometry" />
        </mxCell>
        <mxCell id="Os3PzlcSdva7aXKXOIUQ-32" value="控制台页面" style="shape=partialRectangle;html=1;whiteSpace=wrap;connectable=0;strokeColor=inherit;overflow=hidden;fillColor=none;top=0;left=0;bottom=0;right=0;pointerEvents=1;fontSize=16;" vertex="1" parent="Os3PzlcSdva7aXKXOIUQ-31">
          <mxGeometry width="160" height="40" as="geometry">
            <mxRectangle width="160" height="40" as="alternateBounds" />
          </mxGeometry>
        </mxCell>
        <mxCell id="Os3PzlcSdva7aXKXOIUQ-33" value="SPA" style="shape=partialRectangle;html=1;whiteSpace=wrap;connectable=0;strokeColor=inherit;overflow=hidden;fillColor=none;top=0;left=0;bottom=0;right=0;pointerEvents=1;fontSize=16;" vertex="1" parent="Os3PzlcSdva7aXKXOIUQ-31">
          <mxGeometry x="160" width="160" height="40" as="geometry">
            <mxRectangle width="160" height="40" as="alternateBounds" />
          </mxGeometry>
        </mxCell>
        <mxCell id="Os3PzlcSdva7aXKXOIUQ-34" value="是" style="shape=partialRectangle;html=1;whiteSpace=wrap;connectable=0;strokeColor=inherit;overflow=hidden;fillColor=none;top=0;left=0;bottom=0;right=0;pointerEvents=1;fontSize=16;" vertex="1" parent="Os3PzlcSdva7aXKXOIUQ-31">
          <mxGeometry x="320" width="160" height="40" as="geometry">
            <mxRectangle width="160" height="40" as="alternateBounds" />
          </mxGeometry>
        </mxCell>
        <mxCell id="Os3PzlcSdva7aXKXOIUQ-35" value="和SATH平台交互相关，若未鉴权，需要先跳转登录页面" style="shape=partialRectangle;html=1;whiteSpace=wrap;connectable=0;strokeColor=inherit;overflow=hidden;fillColor=none;top=0;left=0;bottom=0;right=0;pointerEvents=1;fontSize=16;" vertex="1" parent="Os3PzlcSdva7aXKXOIUQ-31">
          <mxGeometry x="480" width="210" height="40" as="geometry">
            <mxRectangle width="210" height="40" as="alternateBounds" />
          </mxGeometry>
        </mxCell>
        <mxCell id="Os3PzlcSdva7aXKXOIUQ-36" value="" style="rounded=0;html=1;jettySize=auto;orthogonalLoop=1;fontSize=11;endArrow=block;endFill=0;endSize=8;strokeWidth=1;shadow=0;labelBackgroundColor=none;edgeStyle=orthogonalEdgeStyle;" edge="1" parent="1" source="Os3PzlcSdva7aXKXOIUQ-37" target="Os3PzlcSdva7aXKXOIUQ-40">
          <mxGeometry relative="1" as="geometry" />
        </mxCell>
        <mxCell id="Os3PzlcSdva7aXKXOIUQ-37" value="请求控制台页面" style="rounded=1;whiteSpace=wrap;html=1;fontSize=12;glass=0;strokeWidth=1;shadow=0;" vertex="1" parent="1">
          <mxGeometry x="205" y="651" width="120" height="40" as="geometry" />
        </mxCell>
        <mxCell id="Os3PzlcSdva7aXKXOIUQ-38" value="Yes" style="rounded=0;html=1;jettySize=auto;orthogonalLoop=1;fontSize=11;endArrow=block;endFill=0;endSize=8;strokeWidth=1;shadow=0;labelBackgroundColor=none;edgeStyle=orthogonalEdgeStyle;" edge="1" parent="1" source="Os3PzlcSdva7aXKXOIUQ-40">
          <mxGeometry y="20" relative="1" as="geometry">
            <mxPoint as="offset" />
            <mxPoint x="265" y="861" as="targetPoint" />
          </mxGeometry>
        </mxCell>
        <mxCell id="Os3PzlcSdva7aXKXOIUQ-39" value="No" style="edgeStyle=orthogonalEdgeStyle;rounded=0;html=1;jettySize=auto;orthogonalLoop=1;fontSize=11;endArrow=block;endFill=0;endSize=8;strokeWidth=1;shadow=0;labelBackgroundColor=none;" edge="1" parent="1" source="Os3PzlcSdva7aXKXOIUQ-40" target="Os3PzlcSdva7aXKXOIUQ-41">
          <mxGeometry y="10" relative="1" as="geometry">
            <mxPoint as="offset" />
          </mxGeometry>
        </mxCell>
        <mxCell id="Os3PzlcSdva7aXKXOIUQ-40" value="用户已登录？" style="rhombus;whiteSpace=wrap;html=1;shadow=0;fontFamily=Helvetica;fontSize=12;align=center;strokeWidth=1;spacing=6;spacingTop=-4;" vertex="1" parent="1">
          <mxGeometry x="215" y="741" width="100" height="80" as="geometry" />
        </mxCell>
        <mxCell id="Os3PzlcSdva7aXKXOIUQ-51" value="" style="edgeStyle=orthogonalEdgeStyle;rounded=0;orthogonalLoop=1;jettySize=auto;html=1;" edge="1" parent="1" source="Os3PzlcSdva7aXKXOIUQ-41" target="Os3PzlcSdva7aXKXOIUQ-50">
          <mxGeometry relative="1" as="geometry" />
        </mxCell>
        <mxCell id="Os3PzlcSdva7aXKXOIUQ-41" value="重定向至登录页面" style="rounded=1;whiteSpace=wrap;html=1;fontSize=12;glass=0;strokeWidth=1;shadow=0;" vertex="1" parent="1">
          <mxGeometry x="365" y="761" width="120" height="40" as="geometry" />
        </mxCell>
        <mxCell id="Os3PzlcSdva7aXKXOIUQ-49" value="加载页面" style="rounded=1;whiteSpace=wrap;html=1;fontSize=12;glass=0;strokeWidth=1;shadow=0;" vertex="1" parent="1">
          <mxGeometry x="205" y="978" width="120" height="40" as="geometry" />
        </mxCell>
        <mxCell id="Os3PzlcSdva7aXKXOIUQ-65" style="edgeStyle=orthogonalEdgeStyle;rounded=0;orthogonalLoop=1;jettySize=auto;html=1;entryX=1;entryY=0.5;entryDx=0;entryDy=0;" edge="1" parent="1" source="Os3PzlcSdva7aXKXOIUQ-50" target="Os3PzlcSdva7aXKXOIUQ-55">
          <mxGeometry relative="1" as="geometry">
            <Array as="points">
              <mxPoint x="625" y="901" />
            </Array>
          </mxGeometry>
        </mxCell>
        <mxCell id="Os3PzlcSdva7aXKXOIUQ-50" value="用户登录成功" style="whiteSpace=wrap;html=1;rounded=1;glass=0;strokeWidth=1;shadow=0;" vertex="1" parent="1">
          <mxGeometry x="565" y="751" width="120" height="60" as="geometry" />
        </mxCell>
        <mxCell id="Os3PzlcSdva7aXKXOIUQ-55" value="用户权限控制" style="rhombus;whiteSpace=wrap;html=1;shadow=0;fontFamily=Helvetica;fontSize=12;align=center;strokeWidth=1;spacing=6;spacingTop=-4;" vertex="1" parent="1">
          <mxGeometry x="215" y="861" width="100" height="80" as="geometry" />
        </mxCell>
        <mxCell id="Os3PzlcSdva7aXKXOIUQ-61" value="No" style="rounded=0;html=1;jettySize=auto;orthogonalLoop=1;fontSize=11;endArrow=block;endFill=0;endSize=8;strokeWidth=1;shadow=0;labelBackgroundColor=none;edgeStyle=orthogonalEdgeStyle;exitX=0.5;exitY=1;exitDx=0;exitDy=0;entryX=0.5;entryY=0;entryDx=0;entryDy=0;" edge="1" parent="1" target="Os3PzlcSdva7aXKXOIUQ-49">
          <mxGeometry y="20" relative="1" as="geometry">
            <mxPoint as="offset" />
            <mxPoint x="264" y="941" as="sourcePoint" />
            <mxPoint x="274" y="978" as="targetPoint" />
          </mxGeometry>
        </mxCell>
        <mxCell id="Os3PzlcSdva7aXKXOIUQ-62" value="Yes" style="rounded=0;html=1;jettySize=auto;orthogonalLoop=1;fontSize=11;endArrow=block;endFill=0;endSize=8;strokeWidth=1;shadow=0;labelBackgroundColor=none;edgeStyle=orthogonalEdgeStyle;exitX=0;exitY=0.5;exitDx=0;exitDy=0;entryX=1;entryY=0.5;entryDx=0;entryDy=0;" edge="1" parent="1" source="Os3PzlcSdva7aXKXOIUQ-55" target="Os3PzlcSdva7aXKXOIUQ-63">
          <mxGeometry y="20" relative="1" as="geometry">
            <mxPoint as="offset" />
            <mxPoint x="275" y="875" as="sourcePoint" />
            <mxPoint x="275" y="915" as="targetPoint" />
          </mxGeometry>
        </mxCell>
        <mxCell id="Os3PzlcSdva7aXKXOIUQ-64" style="edgeStyle=orthogonalEdgeStyle;rounded=0;orthogonalLoop=1;jettySize=auto;html=1;exitX=0.5;exitY=1;exitDx=0;exitDy=0;entryX=0;entryY=0.5;entryDx=0;entryDy=0;" edge="1" parent="1" source="Os3PzlcSdva7aXKXOIUQ-63" target="Os3PzlcSdva7aXKXOIUQ-49">
          <mxGeometry relative="1" as="geometry" />
        </mxCell>
        <mxCell id="Os3PzlcSdva7aXKXOIUQ-63" value="返回用户有权限的menu" style="rounded=1;whiteSpace=wrap;html=1;fontSize=12;glass=0;strokeWidth=1;shadow=0;" vertex="1" parent="1">
          <mxGeometry x="30" y="881" width="120" height="40" as="geometry" />
        </mxCell>
        <mxCell id="Os3PzlcSdva7aXKXOIUQ-66" value="&lt;h1&gt;用户权限控制&lt;/h1&gt;&lt;p&gt;是否需要控制用户权限？&lt;/p&gt;&lt;p&gt;若需要，则由登录接口返回用户具有的页面menu路由api:&lt;/p&gt;&lt;p&gt;若不需要，则前端显示全部页面&lt;/p&gt;" style="text;html=1;strokeColor=none;fillColor=none;spacing=5;spacingTop=-20;whiteSpace=wrap;overflow=hidden;rounded=0;" vertex="1" parent="1">
          <mxGeometry x="410" y="970" width="190" height="149" as="geometry" />
        </mxCell>
      </root>
    </mxGraphModel>
  </diagram>
</mxfile>
